<svg width="16" height="10" viewBox="0 0 16 10" fill="none" xmlns="http://www.w3.org/2000/svg">
<path fill-rule="evenodd" clip-rule="evenodd" d="M8.80079 9.44238C8.80079 9.79838 9.1642 10.0467 9.50256 9.93601C10.5388 9.59698 12.6692 9.00669 15.5346 8.76608C15.7966 8.74408 16.0008 8.53062 16.0008 8.26773C16.0008 6.7657 16.0008 2.03884 16.0008 0.491261C16.0008 0.215118 15.7779 -0.0024061 15.5021 0.0116152C14.4341 0.0659113 11.8037 0.301936 9.11468 1.32793C8.92431 1.40057 8.80079 1.58032 8.80079 1.78408C8.80079 3.05689 8.80079 7.63281 8.80079 9.44238Z" fill="white"/>
<path fill-rule="evenodd" clip-rule="evenodd" d="M8.80079 9.44238C8.80079 9.79838 9.1642 10.0467 9.50256 9.93601C10.5388 9.59698 12.6692 9.00669 15.5346 8.76608C15.7966 8.74408 16.0008 8.53062 16.0008 8.26773C16.0008 6.7657 16.0008 2.03884 16.0008 0.491261C16.0008 0.215118 15.7779 -0.0024061 15.5021 0.0116152C14.4341 0.0659113 11.8037 0.301936 9.11468 1.32793C8.92431 1.40057 8.80079 1.58032 8.80079 1.78408C8.80079 3.05689 8.80079 7.63281 8.80079 9.44238Z" fill="#4E5D78"/>
<g opacity="0.3">
<path fill-rule="evenodd" clip-rule="evenodd" d="M7.19921 9.44238C7.19921 9.79838 6.8358 10.0467 6.49744 9.93601C5.46121 9.59698 3.33082 9.00669 0.465386 8.76608C0.203419 8.74408 -0.000776708 8.53062 -0.000776708 8.26773C-0.000776708 6.7657 -0.000776708 2.03884 -0.000776708 0.491261C-0.000776708 0.215118 0.222112 -0.0024061 0.497898 0.0116152C1.56585 0.0659113 4.19634 0.301936 6.88532 1.32793C7.07569 1.40057 7.19921 1.58032 7.19921 1.78408C7.19921 3.05689 7.19921 7.63281 7.19921 9.44238Z" fill="white"/>
<path fill-rule="evenodd" clip-rule="evenodd" d="M7.19921 9.44238C7.19921 9.79838 6.8358 10.0467 6.49744 9.93601C5.46121 9.59698 3.33082 9.00669 0.465386 8.76608C0.203419 8.74408 -0.000776708 8.53062 -0.000776708 8.26773C-0.000776708 6.7657 -0.000776708 2.03884 -0.000776708 0.491261C-0.000776708 0.215118 0.222112 -0.0024061 0.497898 0.0116152C1.56585 0.0659113 4.19634 0.301936 6.88532 1.32793C7.07569 1.40057 7.19921 1.58032 7.19921 1.78408C7.19921 3.05689 7.19921 7.63281 7.19921 9.44238Z" fill="#4E5D78"/>
</g>
</svg>
