<svg width="16" height="16" viewBox="0 0 16 16" fill="none" xmlns="http://www.w3.org/2000/svg">
<path fill-rule="evenodd" clip-rule="evenodd" d="M8.72834 6.54537C9.13 6.54537 9.45561 6.87098 9.45561 7.27264V13.8181C9.45561 14.2198 9.13 14.5454 8.72834 14.5454H2.18288C1.78122 14.5454 1.45561 14.2198 1.45561 13.8181V7.27264C1.45561 6.87098 1.78122 6.54537 2.18288 6.54537H8.72834ZM10.9102 7.27264C10.9102 6.06765 9.93332 5.09082 8.72834 5.09082H2.18288C0.977898 5.09082 0.00106502 6.06765 0.00106502 7.27264V13.8181C0.00106502 15.0231 0.977898 15.9999 2.18288 15.9999H8.72834C9.93332 15.9999 10.9102 15.0231 10.9102 13.8181V7.27264Z" fill="white"/>
<path fill-rule="evenodd" clip-rule="evenodd" d="M8.72834 6.54537C9.13 6.54537 9.45561 6.87098 9.45561 7.27264V13.8181C9.45561 14.2198 9.13 14.5454 8.72834 14.5454H2.18288C1.78122 14.5454 1.45561 14.2198 1.45561 13.8181V7.27264C1.45561 6.87098 1.78122 6.54537 2.18288 6.54537H8.72834ZM10.9102 7.27264C10.9102 6.06765 9.93332 5.09082 8.72834 5.09082H2.18288C0.977898 5.09082 0.00106502 6.06765 0.00106502 7.27264V13.8181C0.00106502 15.0231 0.977898 15.9999 2.18288 15.9999H8.72834C9.93332 15.9999 10.9102 15.0231 10.9102 13.8181V7.27264Z" fill="#4E5D78"/>
<path fill-rule="evenodd" clip-rule="evenodd" d="M13.8182 1.45455C14.0111 1.45455 14.1961 1.53117 14.3324 1.66756C14.4688 1.80395 14.5455 1.98893 14.5455 2.18182V8.72727C14.5455 8.92016 14.4688 9.10514 14.3324 9.24153C14.1961 9.37792 14.0111 9.45455 13.8182 9.45455H13.0909C12.6892 9.45455 12.3636 9.78016 12.3636 10.1818C12.3636 10.5835 12.6892 10.9091 13.0909 10.9091H13.8182C14.3968 10.9091 14.9518 10.6792 15.361 10.2701C15.7701 9.86088 16 9.30593 16 8.72727V2.18182C16 1.60316 15.7701 1.04821 15.361 0.63904C14.9518 0.229869 14.3968 0 13.8182 0H7.27273C6.69407 0 6.13912 0.229869 5.72995 0.63904C5.32078 1.04821 5.09091 1.60316 5.09091 2.18182V2.90909C5.09091 3.31075 5.41652 3.63636 5.81818 3.63636C6.21984 3.63636 6.54545 3.31075 6.54545 2.90909V2.18182C6.54545 1.98893 6.62208 1.80395 6.75847 1.66756C6.89486 1.53117 7.07984 1.45455 7.27273 1.45455H13.8182Z" fill="white"/>
<path fill-rule="evenodd" clip-rule="evenodd" d="M13.8182 1.45455C14.0111 1.45455 14.1961 1.53117 14.3324 1.66756C14.4688 1.80395 14.5455 1.98893 14.5455 2.18182V8.72727C14.5455 8.92016 14.4688 9.10514 14.3324 9.24153C14.1961 9.37792 14.0111 9.45455 13.8182 9.45455H13.0909C12.6892 9.45455 12.3636 9.78016 12.3636 10.1818C12.3636 10.5835 12.6892 10.9091 13.0909 10.9091H13.8182C14.3968 10.9091 14.9518 10.6792 15.361 10.2701C15.7701 9.86088 16 9.30593 16 8.72727V2.18182C16 1.60316 15.7701 1.04821 15.361 0.63904C14.9518 0.229869 14.3968 0 13.8182 0H7.27273C6.69407 0 6.13912 0.229869 5.72995 0.63904C5.32078 1.04821 5.09091 1.60316 5.09091 2.18182V2.90909C5.09091 3.31075 5.41652 3.63636 5.81818 3.63636C6.21984 3.63636 6.54545 3.31075 6.54545 2.90909V2.18182C6.54545 1.98893 6.62208 1.80395 6.75847 1.66756C6.89486 1.53117 7.07984 1.45455 7.27273 1.45455H13.8182Z" fill="#4E5D78"/>
</svg>
