<svg width="17" height="18" viewBox="0 0 17 18" fill="none" xmlns="http://www.w3.org/2000/svg">
<path fill-rule="evenodd" clip-rule="evenodd" d="M5.83594 0.75C6.25015 0.75 6.58594 1.08579 6.58594 1.5V3.61538C6.58594 4.0296 6.25015 4.36538 5.83594 4.36538C5.42172 4.36538 5.08594 4.0296 5.08594 3.61538V1.5C5.08594 1.08579 5.42172 0.75 5.83594 0.75Z" fill="white"/>
<path fill-rule="evenodd" clip-rule="evenodd" d="M5.83594 0.75C6.25015 0.75 6.58594 1.08579 6.58594 1.5V3.61538C6.58594 4.0296 6.25015 4.36538 5.83594 4.36538C5.42172 4.36538 5.08594 4.0296 5.08594 3.61538V1.5C5.08594 1.08579 5.42172 0.75 5.83594 0.75Z" fill="#4E5D78"/>
<path fill-rule="evenodd" clip-rule="evenodd" d="M11.6706 4.36572H0V2.86572H11.6706V4.36572Z" fill="white"/>
<path fill-rule="evenodd" clip-rule="evenodd" d="M11.6706 4.36572H0V2.86572H11.6706V4.36572Z" fill="#4E5D78"/>
<path fill-rule="evenodd" clip-rule="evenodd" d="M5.27213 7.47253L8.42932 3.17188L9.63848 4.05954L6.20061 8.74253C7.06954 9.88179 8.08484 11.0772 9.1736 12.1101C9.47411 12.3951 9.48662 12.8698 9.20154 13.1703C8.91646 13.4709 8.44175 13.4834 8.14125 13.1983C7.09894 12.2095 6.12646 11.0881 5.27697 10.0007L1.73259 14.8288L0.523438 13.9411L4.33702 8.74633C3.43724 7.49568 2.74739 6.38976 2.36114 5.72199C2.15376 5.36343 2.2763 4.90464 2.63486 4.69725C2.99341 4.48986 3.4522 4.61241 3.65959 4.97096C3.98927 5.54096 4.5489 6.44113 5.27213 7.47253Z" fill="white"/>
<path fill-rule="evenodd" clip-rule="evenodd" d="M5.27213 7.47253L8.42932 3.17188L9.63848 4.05954L6.20061 8.74253C7.06954 9.88179 8.08484 11.0772 9.1736 12.1101C9.47411 12.3951 9.48662 12.8698 9.20154 13.1703C8.91646 13.4709 8.44175 13.4834 8.14125 13.1983C7.09894 12.2095 6.12646 11.0881 5.27697 10.0007L1.73259 14.8288L0.523438 13.9411L4.33702 8.74633C3.43724 7.49568 2.74739 6.38976 2.36114 5.72199C2.15376 5.36343 2.2763 4.90464 2.63486 4.69725C2.99341 4.48986 3.4522 4.61241 3.65959 4.97096C3.98927 5.54096 4.5489 6.44113 5.27213 7.47253Z" fill="#4E5D78"/>
<path fill-rule="evenodd" clip-rule="evenodd" d="M12.2336 7.28857C12.5299 7.28857 12.7984 7.463 12.9189 7.7337L16.6836 16.1952C16.852 16.5737 16.6817 17.017 16.3032 17.1854C15.9248 17.3537 15.4815 17.1834 15.3131 16.805L14.3817 14.7117H10.0855L9.15417 16.805C8.9858 17.1834 8.54251 17.3537 8.16406 17.1854C7.78561 17.017 7.61532 16.5737 7.7837 16.1952L11.5484 7.7337C11.6688 7.463 11.9374 7.28857 12.2336 7.28857ZM10.7529 13.2117H13.7144L12.2336 9.88359L10.7529 13.2117Z" fill="white"/>
<path fill-rule="evenodd" clip-rule="evenodd" d="M12.2336 7.28857C12.5299 7.28857 12.7984 7.463 12.9189 7.7337L16.6836 16.1952C16.852 16.5737 16.6817 17.017 16.3032 17.1854C15.9248 17.3537 15.4815 17.1834 15.3131 16.805L14.3817 14.7117H10.0855L9.15417 16.805C8.9858 17.1834 8.54251 17.3537 8.16406 17.1854C7.78561 17.017 7.61532 16.5737 7.7837 16.1952L11.5484 7.7337C11.6688 7.463 11.9374 7.28857 12.2336 7.28857ZM10.7529 13.2117H13.7144L12.2336 9.88359L10.7529 13.2117Z" fill="#4E5D78"/>
</svg>
