<svg width="16" height="16" viewBox="0 0 16 16" fill="none" xmlns="http://www.w3.org/2000/svg">
<path fill-rule="evenodd" clip-rule="evenodd" d="M0 8.00022C0 7.5093 0.397969 7.11133 0.888889 7.11133H15.1111C15.602 7.11133 16 7.5093 16 8.00022C16 8.49114 15.602 8.88911 15.1111 8.88911H0.888889C0.397969 8.88911 0 8.49114 0 8.00022Z" fill="white"/>
<path fill-rule="evenodd" clip-rule="evenodd" d="M0 8.00022C0 7.5093 0.397969 7.11133 0.888889 7.11133H15.1111C15.602 7.11133 16 7.5093 16 8.00022C16 8.49114 15.602 8.88911 15.1111 8.88911H0.888889C0.397969 8.88911 0 8.49114 0 8.00022Z" fill="#4E5D78"/>
<path fill-rule="evenodd" clip-rule="evenodd" d="M7.36972 0.26035C7.71686 -0.0867832 8.27967 -0.0867832 8.6268 0.26035L15.7379 7.37146C16.085 7.71859 16.085 8.28141 15.7379 8.62854L8.6268 15.7397C8.27967 16.0868 7.71686 16.0868 7.36972 15.7397C7.02259 15.3925 7.02259 14.8297 7.36972 14.4826L13.8523 8L7.36972 1.51743C7.02259 1.1703 7.02259 0.607482 7.36972 0.26035Z" fill="white"/>
<path fill-rule="evenodd" clip-rule="evenodd" d="M7.36972 0.26035C7.71686 -0.0867832 8.27967 -0.0867832 8.6268 0.26035L15.7379 7.37146C16.085 7.71859 16.085 8.28141 15.7379 8.62854L8.6268 15.7397C8.27967 16.0868 7.71686 16.0868 7.36972 15.7397C7.02259 15.3925 7.02259 14.8297 7.36972 14.4826L13.8523 8L7.36972 1.51743C7.02259 1.1703 7.02259 0.607482 7.36972 0.26035Z" fill="#4E5D78"/>
</svg>
